<?xml version="1.0" standalone="no"?>
<!DOCTYPE svg PUBLIC "-//W3C//DTD SVG 20010904//EN"
 "http://www.w3.org/TR/2001/REC-SVG-20010904/DTD/svg10.dtd">
<svg version="1.0" xmlns="http://www.w3.org/2000/svg"
 width="220.000000pt" height="220.000000pt" viewBox="0 0 220.000000 220.000000"
 preserveAspectRatio="xMidYMid meet">
<metadata>
Created by potrace 1.14, written by Peter Selinger 2001-2017
</metadata>
<g transform="translate(0.000000,220.000000) scale(0.100000,-0.100000)"
fill="#000000" stroke="none">
<path d="M1030 1860 c0 -66 -3 -120 -6 -120 -3 0 -50 25 -104 55 -54 30 -101
55 -104 55 -3 0 -6 -35 -6 -78 l0 -78 110 -63 110 -62 0 -45 c0 -25 -3 -43 -7
-41 -5 2 -51 30 -105 61 -53 31 -99 56 -102 56 -3 0 -6 -54 -6 -120 0 -66 -2
-120 -5 -120 -2 0 -20 8 -40 17 l-35 17 0 133 c0 73 -4 133 -8 133 -5 0 -34
16 -66 35 -32 19 -60 35 -62 35 -2 0 -4 -56 -4 -125 0 -119 -4 -137 -25 -116
-13 12 -188 112 -190 109 -28 -45 -65 -110 -65 -117 0 -5 45 -35 100 -66 55
-31 100 -58 100 -60 0 -2 -47 -30 -105 -64 -58 -34 -105 -63 -105 -66 0 -7
126 -75 140 -75 7 0 57 27 112 60 103 62 114 64 156 32 l23 -18 -105 -59 c-58
-33 -106 -62 -106 -65 0 -3 47 -32 105 -64 58 -33 105 -63 105 -66 0 -4 -17
-15 -39 -24 l-39 -18 -100 61 c-56 34 -106 61 -112 61 -18 0 -139 -73 -134
-81 2 -4 49 -33 105 -65 115 -67 116 -57 -19 -130 -45 -25 -82 -50 -82 -55 0
-14 61 -119 69 -119 4 0 27 13 52 28 24 15 70 42 102 60 l57 32 0 -125 c0 -69
3 -125 6 -125 3 0 34 17 69 38 l65 37 0 131 0 130 35 17 c20 9 38 17 40 17 3
0 5 -54 5 -120 0 -66 3 -120 8 -120 4 0 27 12 52 27 25 14 71 41 103 59 l57
33 0 -44 c0 -50 9 -41 -132 -121 l-88 -49 0 -83 0 -83 28 15 c15 8 62 35 105
60 43 25 80 46 82 46 3 0 5 -54 5 -120 l0 -120 70 0 70 0 0 120 c0 66 2 120 4
120 3 0 51 -26 108 -59 57 -32 104 -58 105 -57 1 0 3 37 5 80 l3 79 -110 62
-110 63 -3 41 c-2 22 1 41 7 41 5 0 52 -25 105 -55 52 -30 97 -55 100 -55 4 0
6 54 6 120 0 66 4 120 9 120 5 0 23 -8 40 -17 l31 -18 0 -130 0 -130 67 -38
c36 -20 67 -36 69 -34 2 1 4 55 5 120 1 74 5 117 12 117 6 0 53 -25 105 -56
52 -30 98 -51 103 -47 4 4 21 31 37 60 35 60 42 50 -86 123 -81 46 -90 54 -75
65 10 6 55 33 100 59 46 26 85 52 88 56 5 9 -113 80 -132 80 -5 0 -55 -27
-112 -61 -95 -57 -103 -60 -131 -49 -59 24 -54 32 56 95 57 32 104 61 104 64
0 4 -48 33 -106 66 l-105 59 23 18 c42 32 53 30 157 -32 56 -33 107 -60 114
-60 6 0 42 17 79 38 l68 38 -111 64 c-78 44 -106 66 -97 72 7 5 42 25 78 45
36 20 77 45 92 55 l27 19 -36 59 c-19 33 -37 60 -38 60 -2 0 -45 -25 -96 -55
-52 -30 -99 -55 -105 -55 -8 0 -12 37 -13 117 -1 64 -3 118 -4 120 -2 1 -32
-14 -68 -35 l-64 -37 -3 -130 -3 -130 -30 -17 c-17 -10 -35 -18 -40 -18 -5 0
-9 54 -9 120 0 66 -2 120 -4 120 -3 0 -44 -23 -93 -51 -48 -28 -96 -55 -105
-60 -16 -9 -18 -5 -18 35 l0 45 111 63 111 63 1 77 c0 43 -4 78 -9 78 -5 -1
-52 -25 -106 -55 -53 -30 -99 -55 -102 -55 -3 0 -6 54 -6 120 l0 120 -70 0
-70 0 0 -120z m81 -47 c1 -60 2 -123 2 -140 0 -18 2 -33 5 -33 3 0 49 25 103
55 53 30 102 55 108 55 29 0 2 -23 -87 -74 -146 -83 -133 -65 -130 -189 l3
-107 100 56 c55 31 105 59 112 61 10 4 13 -23 13 -120 l0 -126 93 54 92 54 5
132 c3 87 9 134 16 136 9 3 12 -32 13 -119 1 -67 3 -123 4 -124 1 -1 56 29
121 67 72 42 123 66 128 61 10 -10 -38 -42 -154 -107 -37 -20 -70 -41 -73 -45
-3 -5 42 -37 100 -71 70 -41 102 -65 94 -70 -7 -4 -16 -6 -19 -5 -3 2 -50 29
-104 61 -55 32 -105 58 -111 58 -7 0 -54 -24 -105 -53 -79 -45 -90 -54 -74
-63 11 -6 61 -35 112 -65 l93 -54 -105 -60 c-58 -33 -106 -63 -106 -67 0 -6
174 -111 184 -111 3 0 53 29 112 64 58 36 113 62 121 59 20 -8 13 -13 -104
-80 l-101 -59 125 -73 c80 -48 121 -77 115 -83 -7 -7 -53 15 -131 61 l-121 70
-1 -112 c-1 -62 -1 -118 0 -126 2 -7 -4 -11 -11 -9 -10 4 -14 38 -16 135 l-3
130 -91 52 c-50 28 -92 50 -94 49 -1 -2 -4 -56 -5 -121 -1 -64 -5 -117 -9
-117 -3 0 -49 25 -102 55 -53 30 -101 55 -107 55 -8 0 -11 -33 -9 -107 l3
-108 110 -62 c61 -34 111 -69 113 -78 2 -8 1 -15 -2 -15 -2 0 -52 27 -110 60
-58 33 -108 60 -111 60 -3 0 -5 -63 -5 -140 0 -87 -4 -140 -10 -140 -6 0 -10
53 -10 140 0 77 -3 140 -6 140 -4 0 -29 -13 -56 -30 -26 -16 -50 -30 -53 -30
-2 0 -27 -14 -56 -30 -28 -17 -54 -29 -57 -26 -11 12 24 38 124 93 l104 58 0
112 c0 102 -7 132 -25 104 -4 -8 -153 -94 -187 -109 -5 -2 -8 51 -8 118 0 92
-3 121 -12 118 -7 -2 -52 -25 -100 -52 l-87 -49 -3 -130 c-2 -76 -7 -132 -13
-134 -5 -2 -10 12 -10 29 -1 18 -2 74 -3 125 l-2 91 -119 -69 c-66 -38 -122
-69 -125 -69 -3 0 -6 6 -6 13 0 7 54 44 120 81 l121 69 -111 65 c-76 44 -107
68 -98 73 8 5 27 0 48 -13 19 -11 69 -40 111 -65 l76 -44 91 52 c51 29 92 56
92 60 0 4 -45 33 -100 64 -55 32 -100 60 -100 64 0 4 35 27 78 51 42 24 90 51
105 61 l28 16 -97 57 -97 57 -110 -66 c-72 -43 -113 -63 -120 -56 -6 6 6 19
37 38 26 15 74 44 107 64 l58 36 -119 68 c-66 37 -120 74 -120 81 0 8 2 14 5
14 2 0 58 -31 124 -70 123 -72 137 -78 125 -59 -9 16 6 239 17 239 5 0 9 -60
9 -133 l0 -133 89 -52 c49 -29 94 -52 99 -52 4 0 10 53 11 117 1 65 4 119 5
121 2 1 27 -11 55 -28 28 -16 74 -43 102 -60 28 -16 52 -30 55 -30 2 0 4 51 4
113 l-1 112 -101 55 c-107 58 -131 76 -123 90 3 5 48 -16 100 -46 52 -30 102
-57 110 -60 13 -5 15 14 15 135 0 87 4 141 10 141 6 0 11 -43 11 -107z"/>
<path d="M890 1348 l0 -114 33 -17 c17 -9 59 -33 92 -52 33 -19 63 -35 68 -35
4 0 7 48 7 108 l0 107 -63 36 c-34 20 -79 47 -99 59 l-38 22 0 -114z m105 -15
c32 -15 35 -20 35 -60 0 -24 -3 -43 -7 -43 -5 0 -23 9 -40 20 -28 17 -33 25
-33 60 0 22 2 40 5 40 2 0 20 -8 40 -17z"/>
<path d="M1200 1397 l-85 -52 -3 -107 c-1 -60 0 -108 4 -108 4 0 49 24 101 53
l93 52 0 108 c0 79 -3 107 -12 106 -7 0 -51 -24 -98 -52z m50 -87 c0 -35 -5
-43 -32 -60 -18 -11 -36 -20 -40 -20 -5 0 -8 19 -8 43 0 39 3 45 33 60 45 22
47 22 47 -23z"/>
<path d="M783 1157 c-51 -29 -93 -54 -93 -57 0 -3 43 -29 95 -58 l95 -54 95
54 c85 48 111 68 87 68 -5 0 -47 22 -93 50 -46 27 -86 50 -89 49 -3 0 -46 -24
-97 -52z m132 -34 c19 -9 35 -19 35 -23 0 -3 -16 -14 -35 -24 -34 -19 -36 -19
-70 0 -19 10 -35 21 -35 24 0 5 52 35 67 39 1 1 18 -7 38 -16z"/>
<path d="M1232 1160 c-46 -28 -88 -50 -93 -50 -5 0 -9 -3 -9 -7 1 -10 189
-115 198 -111 26 11 182 104 182 108 0 5 -183 110 -191 110 -2 -1 -42 -23 -87
-50z m127 -37 c17 -10 31 -21 31 -24 0 -3 -15 -14 -34 -24 -34 -18 -36 -18
-70 0 -20 11 -36 22 -36 25 0 7 52 38 67 39 6 1 25 -7 42 -16z"/>
<path d="M983 1017 l-93 -52 0 -113 0 -113 23 12 c12 7 57 32 100 56 l77 45 0
109 c0 60 -3 109 -7 109 -5 -1 -50 -24 -100 -53z m47 -89 c0 -40 -3 -45 -40
-66 l-40 -23 0 45 c0 39 4 47 33 65 17 11 35 21 40 21 4 0 7 -19 7 -42z"/>
<path d="M1113 960 l-1 -109 57 -32 c31 -17 75 -43 99 -56 l42 -25 0 114 0
113 -93 53 c-52 28 -96 52 -99 52 -3 0 -5 -49 -5 -110z m101 -11 c33 -19 36
-25 36 -65 l0 -45 -40 23 c-37 21 -40 26 -40 66 0 23 2 42 4 42 3 0 21 -9 40
-21z"/>
</g>
</svg>
